<svg id="Layer_1" data-name="Layer 1" xmlns="http://www.w3.org/2000/svg" width="50.16" height="46.18" viewBox="0 0 50.16 46.18">
  <defs>
    <style>
      .cls-1, .cls-2, .cls-3 {
        fill: #fff;
      }

      .cls-1 {
        fill-rule: evenodd;
      }

      .cls-3 {
        font-size: 5.7px;
        font-family: ArchivoBlack-Regular, Archivo Black;
      }

      .cls-4 {
        letter-spacing: -0.04em;
      }

      .cls-5 {
        letter-spacing: -0.08em;
      }

      .cls-6 {
        letter-spacing: 0em;
      }

      .cls-7 {
        letter-spacing: -0.06em;
      }

      .cls-8 {
        letter-spacing: -0.02em;
      }
    </style>
  </defs>
  <g>
    <g>
      <path class="cls-1" d="M0,10H0v0H2l.15,0,1.12,0h.37l.16,0v.19h.06v0h.77v0H4.7a.63.63,0,0,0,.55.33.64.64,0,0,0,.6-.47h.09v.07H6v-.07h0v.07h.1v-.06c2,0,4.06.08,6.07.13a2.22,2.22,0,0,1,0-.34h0V9.54c-2,.08-4.06.2-6.07.24V9.72H6.06v.06H6V9.72H5.94v.07h-.1a.61.61,0,0,0-.6-.46.62.62,0,0,0-.55.33H4.64v0H3.86v0H3.8v.19l-.15,0H2.16L2,9.94.72,10H0a0,0,0,0,0,0,0Z" transform="translate(0 -1.91)"/>
      <path class="cls-1" d="M8.3,17.09a0,0,0,0,1,0,0,0,0,0,0,1,0,0h.19a0,0,0,0,1,0,0,0,0,0,0,1,0,0l2.12-.24.35-.22v.05h.3v-.94h0l-.2,0,.2,0h0v-.35l1-.77,0,3.45h-1.3v.06l-.36-.21L8.6,17.62a0,0,0,0,1,0,0s0,0,0,0H8.45v.09H8.36s0,0,0,0H8.34l0,0,0,0h0l0,0a0,0,0,0,1,0,0H8.4l0,0a0,0,0,0,1,0,0,0,0,0,0,1,0,0v-.05h0v.05s0,0,0,0a0,0,0,0,1,0,0v.06h.07s0,0,0,0,0,0,0,0l2.12-.27-2.13-.25s0,0,0,0a0,0,0,0,1,0,0H8.33a0,0,0,0,1,0,0,0,0,0,0,1,0,0Zm.1.58h0v0Zm0,0h0v0h0v0Zm0-.08h0v-.06h0l0,.05Zm0,0h0v0Zm0,.08h0v0h0Z" transform="translate(0 -1.91)"/>
      <path class="cls-1" d="M9,13.44H9v0H9v0h.08a0,0,0,0,1,0,0,.05.05,0,0,1,0,0h0l0,0h0l.31,0v0h.09a1,1,0,0,0,.16-.07s0,0,0,0h0v0l.08,0h.41v-.05h.13v-.07h.07v0h0l.06,0h.6v-.17h.07v0h0c0,.06,0,.06.07.06v0H12l-.08-2.5h-.27v0l.08,0h.2l.08,0h.35V9.77l.71-.42,0,4.73-.47-.2H11.47s-.06,0-.07.06h0v-.05h-.07v-.18h-.6l-.06,0h0v0h-.06v-.07H10.4v0H10l-.07,0v0h0l0,0-.17-.07H9.6v0l-.31,0h0l0,0h0a.07.07,0,0,1,0,0,0,0,0,0,1,0,0H9v0H9v0H9Zm1,0a.08.08,0,0,0,0,0s0,0,0,0,0,0,0,0Zm0,.13h0l0,0h0Zm0-.25h0Zm0,.08a0,0,0,0,1,0,0l0,0a0,0,0,0,1,0,0Zm0,.09h0v0h0v0Zm0,.09h0Zm0-.28h0Zm0,.14,0,0,.05,0-.05,0Zm0,.11h0l0,0Zm0-.21h0Zm0,0a0,0,0,0,0,0,0l.06,0h-.07Zm0,.14h.07l-.06,0Zm0,.06h0l0,0h.27v-.05h-.24l-.08,0Zm0-.25.08,0h.24v-.05h-.27l0,0Zm0,.16a.09.09,0,0,0,.05,0h.25v-.06h-.25a.05.05,0,0,0-.05,0Zm0-.08a.05.05,0,0,0,.05,0h.25v-.07h-.25A.09.09,0,0,0,10.09,13.39Z" transform="translate(0 -1.91)"/>
      <path class="cls-1" d="M10.22,7.79h0v0h.07A1.2,1.2,0,0,0,12,8.37v.26h.45L12.4,5,11,5V5h-.08v.06l-.36.21v.09a.09.09,0,0,0,0,.08.1.1,0,0,0,0,.07V5.6l.36.21v.05h.4v.24a1.2,1.2,0,0,0-1,.75h-.07v0h0v1Z" transform="translate(0 -1.91)"/>
      <path class="cls-1" d="M10.09,11.84h0l.09-.07h0a.16.16,0,0,0-.07.13.23.23,0,0,1,.1-.12l0,0,0,0h0s0,0,0,0h.06a.29.29,0,0,1,.07-.08h.07s0,0,0,0,0,0,0,0h.08l0,0a.22.22,0,0,0,0,.08.31.31,0,0,0,.07.09l.09.12s0,0,.07,0l.11-.09s0,0,.06,0v0s0,0,0,0v0h0v0s0,0,0,0v0h0v0s0,0,0,0,0,0,0,0h0v0l0,0h.09v.07l.11.16v0a0,0,0,0,0,0,0h0s0,0,0,0v0l0,0s0,0-.05-.05l-.06,0s0,0,0,0a.06.06,0,0,1,0,.06h0a.09.09,0,0,1,.07,0s0,0,0,0h0s0,0,0,0,0,0,0,0a0,0,0,0,0,0,0h0l0,0h.13s0,.05,0,.08,0,0,.05,0a.25.25,0,0,1,0,.12h.05s0,0,0,0,0-.06,0-.09,0,0,0-.06,0,0,0-.05h0s0,0,0,0a.5.5,0,0,0,.13,0l0-.08h.08l.08,0s0,0,0,.07l0,0s0,.07,0,.09l0,0h0a.11.11,0,0,1,0,.06v0s0-.05,0-.05a.23.23,0,0,0,.05.05.17.17,0,0,1,.1,0l0,0,0,0s-.06,0-.09,0v0h0a.11.11,0,0,0,0-.05v0l0,0h0l.16-.12a.14.14,0,0,0,.11,0,.38.38,0,0,0,.08.24V10.87h0v-.72h-.1v.09s0,0-.08,0H12a.12.12,0,0,0-.15.07s0,0,0,0l0,0s0,0-.06,0-.05,0-.07,0h0c-.05,0-.07,0-.06.07h0a.11.11,0,0,0,0,.08l0,0v0h0a.06.06,0,0,0,0,0l0,0h0s0,0,0,0h0v.12s0,.07,0,.09a.75.75,0,0,0-.15.09l0-.05-.15,0,0-.11c0-.06,0-.11-.05-.16l-.07,0s-.08,0,0,0a.09.09,0,0,1,0,0s-.08,0,0,.06a.12.12,0,0,1,0,.08c-.05,0-.08,0,0,.08a.11.11,0,0,1,0,.09l-.12.1,0,0h0A.27.27,0,0,0,11,11c0,.05-.09.08-.11.14a.22.22,0,0,1-.09.07.15.15,0,0,0-.11.11.13.13,0,0,1-.07.06.06.06,0,0,0-.07,0h0a.12.12,0,0,0-.09.05.1.1,0,0,0,0,.05s0,0,0,0,0,0,0,0h0v0l0,.07h0l-.06.08v0a.15.15,0,0,0,0-.09v0s0,0,0,.06l0,0a.11.11,0,0,1-.08,0,.08.08,0,0,0,.09,0v0l-.09.08v0l0,.05Zm.7-.16a.31.31,0,0,0,.12,0,.14.14,0,0,1,.09,0v0h0l0,0a.11.11,0,0,1-.09,0h-.06a.32.32,0,0,0,0-.09Zm.05-.37,0,0s0,0,.05,0h0l.05,0,0,0,0,0Zm.1-.09v0h0s0,0,0,0Zm.08,0a.4.4,0,0,0,0-.11.12.12,0,0,0,.05-.05h0a.18.18,0,0,1,.05-.07v0h0l.07,0,0,.07a.13.13,0,0,0,0,.06h0a.08.08,0,0,0,0-.05s0,0-.06,0,0,0,0,0l0,0H11Zm.17-.25.06,0h0a.06.06,0,0,0,0,.05H11.2a0,0,0,0,1,0,0Zm.32-.17.12,0v.08h0v0s0,0,0,.06h0l0,0a1.4,1.4,0,0,0,0-.23Zm0,.38s0,0,0-.05h0s.07,0,.08,0,0,.05,0,.06Zm.05,1.07a.39.39,0,0,0,0-.15.23.23,0,0,0,.07.1s-.05,0-.09.05Zm.12-1.11s0-.07,0-.07h.06l0,0,0,0A.25.25,0,0,1,11.7,11.11Zm.05.74a.11.11,0,0,1,.07,0,.06.06,0,0,0,.07,0,.07.07,0,0,1,.06,0v0s0,0,0,0h-.06a.32.32,0,0,0-.08-.09v0Zm.11-.91v0s0,0,0,0S12,11,12,11l0,0h-.18s0,0,0-.06Z" transform="translate(0 -1.91)"/>
      <rect class="cls-2" x="12.27" y="4.98" width="1.31" height="40.1" transform="translate(-0.25 -1.78) rotate(-0.57)"/>
      <path class="cls-1" d="M6.8,44.65h.56l.11,0a.07.07,0,0,1,0,0h.08v.12h.16l0,0,0,0h.05l3.2.06,0,.28h0v0l0,0v0l.05,0,0-.08h0l0,0,0,0h.06l1.4.16h0l.8.09h0a0,0,0,0,0,0,0l0,0-.78-.44.77-.45,0,0a0,0,0,0,0,0,0h0l-1.88.25h0l-.34,0h-.06l0,0v0h-.05l0-.08-.05,0v0l-.05,0v0h0l0,.28-.57,0h0l-2.62.1h0l0,0H7.58v.11H7.5l0,0-.11,0H6.8Zm1.07.05v-.14l.07.07Zm0,0L8,44.66l.06.06Zm0-.18H8L8,44.6l-.06-.06Zm.08.09.08-.09.14.09-.13.09L8,44.63Zm.14.1.09-.07v.07Zm0-.2h.09v.06Zm.13.2v-.07l.11.07Zm0-.14v-.06h.1l-.1.07Zm0,0,.15-.1.13.09-.13.11Zm.2.1.09-.07v.08Zm0-.21h.09v.07Zm.13.22v-.08l.1.08Zm0-.15v-.08h.1Zm0,0,.15-.11.13.11-.13.11Zm.2-.12h.09v.08Zm0,.24.09-.08v.08Zm.13,0v-.08l.1.08Zm0-.16V44.5h.1Zm0,0,.15-.12.16.12-.16.12Zm.2.13.12-.09v.09Zm0-.26h.12v.09Zm.16,0h.13l-.13.1Zm0,.17.13.1H9.32Zm0,0,.18-.14.19.13-.19.14Zm.24.13.15-.1v.11Zm0-.28h.15v.11Zm.18.29v-.11l.17.11Zm0-.19v-.1h.16Zm0,0,.21-.15.2.15-.2.15Zm.27.15.16-.11v.12Zm0-.3h.16v.12L10,44.46Zm.2,0h.18l-.18.13Zm0,.19.18.13h-.18Zm0,0,.23-.17.25.16-.25.17Zm.29-.17h.2v.14Zm0,.33.21-.13v.14Zm.24,0v-.14l.24.14Zm0-.21v-.14H11Zm0,0,.25-.16v0h0l0,.13,0,.13h0v0l-.25-.16Zm.66.15v-.3l.26.15Zm.06-.34.23,0v.16Zm0,.37.23-.13v.16Zm.29,0v-.18l.37.22Zm0-.27v-.18l.37,0Zm0,.05.44-.27v.52Zm.51.25v-.52l.45.25-.44.27Zm.05-.55.42-.06v.3Zm0,.58.41-.25v.3Zm.47,0v-.3l.66.38-.66-.08Zm0-.4v-.3l.65-.08-.65.38Z" transform="translate(0 -1.91)"/>
      <path class="cls-1" d="M9,41.33s0,0,0,0H9.2v0h0s0,0,0,0h0a.08.08,0,0,0,0,0h0v0h0s0,0,0,0h0s0,0,0,0,0,0,0,0H9.12a0,0,0,0,0,0,0h0s0,0,0,0h0s0,0,0,0h.1v.06h0s0,0,0,0,0,0,0,0v0s0,0,0,0h0s0,0,0,0v0s0,0,0,0h0v0h0v0h.08l.05,0h0l.07,0,.05,0h0s0,0,0,0h0s0,0,0-.05h0s0,0,0,0l0,0h.09v.05h1.61s0,0,0,0,.05,0,0,0h.15v.26h.05v0H12v0h0v0h0v0h0v0h.26v-1h-.26v0h0v0h0v0h-.39v0h-.05v.27h-.15s0,.06-.05,0,0,0,0,0l-.71,0H9.76v.05H9.67l0,0s0,0,0,0h0v0h0a.08.08,0,0,0,0-.05s0,0-.06,0l0,0h0s0,0,0,0H9.35s0,0,0,0H9.3s0,0,0,0,0,0,0,0,0,0,0,0,0,0,0,0h0s0,0,0,0,0,0,0,0,0,0,0,0h0l0,0h0s0,0,0,0v0s0,0,0,0h0a.13.13,0,0,1,0,.06H9.16s0,0,0,0a0,0,0,0,0,0,0h0l0,0H9Zm.05,0h0Zm0,0h0Zm0,0Zm0,0h0Zm0,.18h0s0,0,0,0h0Zm0-.18,0,0s0,0,0,0l0,0Zm0,0,0,0h0Zm0,.19Zm0,0Zm0-.18h0Zm0,0h0v0h0Zm0,.06v0h0v0h0Zm0,0h0Zm0,0h0l0,0h0s0,0,0,0h0v0Zm.38.06h0Zm0,0h0Zm2.14.35v0H12v0Zm0-.69v0H12v0Zm0,.63v-.05H12v.06Zm0-.54v-.05H12v.05Z" transform="translate(0 -1.91)"/>
      <path class="cls-1" d="M9.84,28a0,0,0,0,0,0,0h0l0,0s0,0,0,0,0,0,0,0h0l0,.05h0a0,0,0,0,0,0,0h0a0,0,0,0,0,0,0h0s0,0,0,0h0s0,0,0,0h0l0,0s0,0,0-.05h.09s0,0,0,0a.06.06,0,0,0,.06,0h.1a.11.11,0,0,1,0,.05h0s0,0,0,0h0s0,0,0,0h0s0,0,0,0h.06a.32.32,0,0,1,0,.12h0l-.06,0h0s0,0,0,0v0h.05a0,0,0,0,1,0,0h0s0,0,0,0h.09l0,0h.07s0,0,0,0h-.07a0,0,0,0,0,0,0h0s0,0,0,0h0s0,0,0,0h0s0,0,0,0h.06v.12h0v0h0v0h0V29.6l.08-.07h.14v0h0v.11l0,0,0,0h0l.08-.11h.16v.06l.08-.06h1.22v-.22h-.08l0,0H11.24l0,0v-.25l0,0,1.17,0,0,0h.09v-.24h-.08l0,0H11.24l0,0v-.3l0,0H12.4l0,0h.08v-.25h-.08l0,0H11.23l0,0v-.49l0,0h1.16l0,0h.08v-.25h-.08l0,0H11.23l0,0v-.3l0,0h1.17l0,0h.08V27h-.08l0,0H11.22l0,0v-.24l0,0h1.16l0,0h.08v-.22H11.27l-.08-.05v.05H11l-.09-.1h0l0-.06,0,.06v.11h0v0H10.7l-.08-.06v1.07h0v0h0v.05h0v.17h0a0,0,0,0,0,0,0h0v0h-.08s0,0,0,0h0v0h0s0,0,0,0h0s0,0,0,0,0,0,0,0h-.07l0,0h0s0,0,0,0h0s0,0,0,0h-.09v0a0,0,0,0,0,0,0l0,0h.07a.14.14,0,0,1,0,.09.08.08,0,0,1,0,.05h0s0,0,0,0h-.07s0,0,0,0,0,0,0,0h-.09s0,0,0,0H10a0,0,0,0,0,0,0,0,0,0,0,0,0,0H9.87s0,0,0,0h0Zm0,.07Zm0,0Zm.07,0h0Zm0,0Zm0,0h0l0,0a0,0,0,0,1,0,0h0v0h0v0h0Zm0,0h0s0,0,0,0,0,0,0,0h0v0h0s0,0,0,0,0,0,0,0Zm.17,0h0Zm0,0Zm.13-.06h0v0h0Zm0,.08h0Zm0,0h0l0,.05h0s0,0,0-.05Zm0,.27h0Zm0-.18h0a.33.33,0,0,1,0,.1A.36.36,0,0,0,10.32,28.21Zm0,.18Zm0-.46,0-.05s0,0,0,.05h0Zm0,.46Zm0-.66h0Zm0,.6a.24.24,0,0,0,0-.12h0l0,0h.06s0,0,0,0h0s-.07,0-.07,0v0Zm0-.4a.09.09,0,0,1,0-.05v0h0l0,0h-.08v0h0Zm0-.14h0v0h0a0,0,0,0,1,0,0v0h0a.25.25,0,0,0,0-.08Zm0,0Zm.06.06h0v0l0,0Zm0,.4,0,0h0v0Zm0-.39h.13v0h-.13v0Zm0,.39h.13v0h0s0,0,0,0h-.09Zm0,0v0s0,0,.05,0h.08v0Zm0,.05Zm0-.12h0s0,0,0,0h0v0h-.09Zm0,0h.06s0,0,0,0h-.08Zm0-.22Zm0,0h.07a0,0,0,0,0,0,0h0v0h-.09Zm0,.15v-.06h.08v.06h-.09Zm0-.12h0s0,0,0,0h0s0,0,0,0h0v0h-.08v0Zm0,.3h0Zm0,0h0Zm.05,0h0Zm0,0Z" transform="translate(0 -1.91)"/>
      <path class="cls-1" d="M9.49,36.45h.7v.09s0,0,0,0,0,0,0,0v.13l0,0s0,0,0,0v.07h0l0,0h0v.08l.09-.06h.28v0h.05v0h0l0,0h.12V37h0s0,0,0,0h-.08s0,0,0,0,0,0,0,0h0l0,0a0,0,0,0,0,0,0h.2v0l0,0h0v.1l.06,0V37h.09v0l.05,0v0l.11,0H12l.05,0h0v0h0v0h.22l0,0h.06l0-3.62h0l0-3.61h-.06v0h-.22l0,0h0v0h0l-.05,0h-.69l-.11,0v0l-.05,0v0H11v-.06l-.06,0v.09h0l0,0v0h0s0,0,0,0l-.06,0h0s0,0,0,0h0v0s0,0,0,0h0s0,0,0,0,0,0,0,0h.08s0,0,.05,0h0V30h-.12l0,0v0h0v0h-.05v0h-.28L10.23,30v.09h-.11v.07l0,0s0,0,0,0v.13s0,0,0,0,0,0,0,0v.08H9.75c.05-.16,0-.25.07-.35h0s0,0,0,0a0,0,0,0,1,0,0s0,0,0,0,0,0,0,0,0,.14-.09.19-.07.11-.1.2h0v0h.7v0s0,0,0,0,0,0,0,0v.13s0,0,0,0,0,0,0,0v.08h0v0h.05v.07l.09-.06h.28v0h.05v0h0l.05,0h.06v.25h-.07s0,0,0,0a0,0,0,0,0,0,0h0a0,0,0,0,0,0,0s0,0,0,0,0,0,0,0h0v.26h-.05s0,0,0,0,0,0,0,0,0,0,0,0h0s0,0,0,0,0,0,0,0,0,0,0,0h0v0h0v.25h0v0h0s0,0,0,0,0,0,0,0,0,0,0,0h0s0,0,0,0,0,0,0,0h.05v.26h-.07s0,0,0,0h0a0,0,0,0,0,0,0s0,0,0,0,0,0,0,0h.05v.25s0,0-.07,0,0,0,0,0,0,0,0,0l-.09,0v.06h-.06l0,0-.06,0v0h0l-.06,0h-.12l0,0,0,0h0v0h0a0,0,0,0,0,0,0H10v0h0v0h0s0,0,0,0h.08l0,.06,0,0h.11l.06,0h0v0l-.19.08a.57.57,0,0,0-.17.12.28.28,0,0,0-.09.1.57.57,0,0,0-.08.13s-.05.13-.05.13h0l0,0s0,0,0,.13h0c0,.12,0,.13,0,.13l0,0h0s0,.09.05.13l.07.14.1.09a.57.57,0,0,0,.17.12,1.22,1.22,0,0,0,.2.07v.05h0l-.06,0h-.11l0,0,0,0H10.1l0,0h0s0,0,0,0h0v0h0v0h0v0h0v0h0s0,0,0,0h0v0h0l0,0,0,0h.11l.07,0h0v0l.06,0,0,0h.06v.06l.09-.06,0,0s0,0,0,0,.05,0,.07,0v.25h0v0h0s0,0,0,0,0,0,0,0,0,0,0,0h0s0,0,0,0,0,0,0,0h.05v.26h-.05s0,0,0,0,0,0,0,0,0,0,0,0h0s0,0,0,0h.07v.26h-.06s0,0,0,0,0,0,0,0h0s0,0,0,0,0,0,0,0h.05v.26h-.05s0,0,0,0,0,0,0,0,0,0,0,0h0s0,0,0,0,0,0,0,0,0,0,0,0h.05V36l-.06,0,0,0h0v0h0v0h-.28l-.08,0v.06h0l0,0h0v.08a0,0,0,0,0,0,0l0,0v.13l0,0s0,0,0,0v0H9.81c0-.17,0-.23.07-.35H9.81s0,0,0,0H9.75a.1.1,0,0,1-.05,0,.84.84,0,0,0-.09.19c0,.07-.07.11-.1.2h0v0Zm0-5.94h0Zm.06,5.92Z" transform="translate(0 -1.91)"/>
      <path class="cls-1" d="M8.58,15.52h.34v0H9l.26,0v.05h.06v.09l-.05,0,0,.14.06,0h.15l.08,0h.47l0,0h.74l0,0,0,0h.27v0l0,.05h.37v2h.15v0h.75V18h0l0,0h.33l-.05-5.07H12.5l0,0h-.05V13h-.91v.36l0,1.66h-.29v0h-.07l0,.06v0h-.3l0,0H9.66l0,0-.06,0-.08,0H9.36l-.07,0,0,.13.05.05v.09H9.26v0L9,15.49H8.92v0H8.81a.34.34,0,0,0,0-.14c0-.1,0,0,0-.15h0s0,0-.06,0,0,0-.07,0h0a.35.35,0,0,1,0,.21.18.18,0,0,0,0,.08h0Zm3,2.13h0Zm0,0h0Zm0,0h0Zm0,0h0Zm0,0h0Zm0,0h0Zm0,0h0Zm0-.05Zm0,0Zm0,0h0Zm0,0h0Zm0,0h0Zm0,0h0Zm0,0h0Zm0-.05Zm0,0Zm0,0h0Zm0,0h0Zm0,0h0Zm0,0h0Zm0-.05h0Zm0,0h0Zm0,0h0Zm0,0h0Zm0,0h0Zm0,0h0Zm0,0h0Zm0,0h0Zm0,0Zm0,0h0Zm0,0h0Zm0,0h0Zm0,0h0Zm0,0h0Zm0-.05Zm0,0Zm0,0h0Zm0,0h0Zm0,0h0Zm0,0h0Zm0,0h0Zm0-1h0Zm0,0h0Zm0,0h0Zm0-.05h0Zm0,0h0Zm0,0h0Zm0,0h0Zm0,0h0Zm0,0h0Zm0,0h0Zm0,0h0Zm0,0h0Zm0,0h0Zm0,0h0Zm0,0h0Zm0,0h0Zm0,0Zm0,0Zm0,0Zm0,0h0Zm0,0h0Zm0,0h0Zm0,0h0Zm0-.05Zm0,0Zm0,0h0Zm0,0h0Zm0,0h0Zm0,0h0Zm0,0h0Zm0,0h0Zm0,0h0Zm0,0h0Zm0,0h0Zm0,0h0Zm0,0h0Zm0,0h0Zm0-.05Zm0,0Zm0,0h0Zm0,0h0Zm.05,4.33Zm0,0Zm0,0Zm0,0Zm0,0Zm0,0Zm0,0Zm0,0Zm0,0Zm0,0Zm0,0Zm0,0Zm0,0Zm0,0Zm0,0Zm0,0Zm0,0Zm0,0Zm0,0Zm0,0Zm0,0Zm0,0Zm0,0Zm0,0Zm0,0Zm0,0Zm0,0Zm0,0Zm0,0Zm0,0Zm0,0Zm0,0h0Zm0,0Zm0,0Zm0,0Zm0,0Zm0,0h0Zm0,0Zm0,0Zm0,0Zm0,0Zm0,0Zm0,0Zm0,0Zm0,0Zm0,0Zm0,0Zm0,0Zm0,0Zm0,0Zm0,0Zm0,0Zm0,0Zm0,0Zm0,0Zm0,0Zm0,0Zm0,0Zm0,0Zm0,0Zm0,0Zm0,0Zm0,0Zm0,0Zm0,0Zm0,0Zm0,0Zm0,0Zm0,0Zm0,0Zm0,0Zm0,0Zm0,0Zm0,0Zm0,0Zm0,0Zm0,0Zm0,0Zm0,0Zm0,0Zm0,0Zm0,0Zm0-1Zm0,0Zm0,0Zm0,0Zm0,0Zm0,0Zm0,0Zm0,0Zm0,0Zm0,0Zm0,0Zm0,0Zm0,0Zm0,0Zm0,0Zm0,0Zm0,0Zm0,0Zm0,0Zm0,0Zm0,0Zm0,0Zm0,0Zm0,0h0Zm0,0Zm0,0Zm0,0Zm0,0Zm0,0h0Zm0,0Zm0,0Zm0,0Zm0,0Zm0,0Zm0,0Zm0,0Zm0,0Zm0,0Zm0,0Zm0,0Zm0,0Zm0,0Zm0,0Zm0,0Zm0,0Zm0,0Zm0,0Zm0,0Zm0,0Zm0,0Zm0,0Zm0,0Zm0,0Zm0,0Zm0,0Zm0,0Zm0,0Zm0,0Zm0,0Zm0,0Zm0,0Zm0,0Zm0,0Zm0,0Zm0,0Zm0,0Zm0,0Zm0,0Zm0,0Zm0,0Zm0,0Zm0,0Zm0,0Zm0,0Zm0,0Zm0,0Zm0,0Zm0,0h0Zm0,0Zm0,0Zm0,0Zm0,0Zm.06,4.35h0Zm0,0h0Zm0,0h0Zm0,0h0Zm0,0Zm0,0Zm0,0Zm0,0Zm0,0Zm0,0h0Zm0,0h0Zm0,0h0Zm0,0h0Zm0,0h0Zm0,0h0Zm0,0h0Zm0,0h0Zm0,0h0Zm0,0h0Zm0,0Zm0,0Zm0,0Zm0,0h0Zm0,0h0Zm0,0h0Zm0,0h0Zm0,0h0Zm0,0h0Zm0,0h0Zm0,0h0Zm0,0h0Zm0,0h0Zm0,0Zm0,0Zm0,0Zm0,0Zm0,0h0Zm0,0h0Zm0,0h0Zm0,0h0Zm0,0h0Zm0,0h0Zm0,0h0Zm0,0h0Zm0,0h0Zm0,0Zm0,0Zm0,0Zm0,0Zm0,0Zm0,0h0Zm0,0h0Zm0,0h0Zm0,0h0Zm0,0h0Zm0,0h0Zm0,0h0Zm0,0h0Zm0,0Zm0,0Zm0,0Zm0,0Zm0,0Zm0,0h0Zm0,0h0Zm0,0h0Zm0,0h0Zm0,0h0Zm0,0h0Zm0,0h0Zm0,0h0Zm0,0h0Zm0,0Zm0,0Zm0,0Zm0,0Zm0,0h0Zm0,0h0Zm0,0h0Zm0,0h0Zm0,0h0Zm0,0h0Zm0-1Zm0,0h0Zm0,0h0Zm0,0h0Zm0,0h0Zm0,0h0Zm0,0h0Zm0,0h0Zm0,0h0Zm0,0h0Zm0,0Zm0,0Zm0,0Zm0,0Zm0,0h0Zm0,0h0Zm0,0h0Zm0,0h0Zm0,0h0Zm0,0h0Zm0,0h0Zm0,0h0Zm0,0h0Zm0,0h0Zm0,0Zm0,0Zm0,0Zm0,0Zm0,0h0Zm0,0h0Zm0,0h0Zm0,0h0Zm0,0h0Zm0,0h0Zm0,0h0Zm0,0h0Zm0,0h0Zm0,0Zm0,0Zm0,0Zm0,0Zm0,0Zm0,0h0Zm0,0h0Zm0,0h0Zm0,0h0Zm0,0h0Zm0,0h0Zm0,0h0Zm0,0h0Zm0,0Zm0,0Zm0,0Zm0,0Zm0,0Zm0,0h0Zm0,0h0Zm0,0h0Zm0,0h0Zm0,0h0Zm0,0h0Zm0,0h0Zm0,0h0Zm0,0h0Zm0,0Zm0,0Zm0,0Zm0,0Zm0,0h0Zm0,0h0Zm0,0h0Zm0,0h0Zm0,0h0Zm0,0h0Zm0,0h0Zm0,0h0Zm0,0h0Zm0,0h0Zm0,0Zm0,0Zm0,0Zm0,0Zm0,4.34h0Zm0,0h0Zm0-.05Zm0,0Zm0,0Zm0,0Zm0,0Zm0,0h0Zm0,0h0Zm0,0Zm0,0Zm0,0Zm0,0Zm0,0h0Zm0,0h0Zm0,0h0Zm0-.05Zm0,0Zm0,0Zm0,0Zm0,0h0Zm0,0h0Zm0-.05Zm0,0h0Zm0,0h0Zm0,0Zm0,0Zm0,0h0Zm0,0h0Zm0-.05Zm0,0Zm0,0Zm0,0Zm0,0Zm0,0h0Zm0,0h0Zm0-.05Zm0,0Zm0,0Zm0,0Zm0,0h0Zm0-1Zm0,0Zm0,0Zm0,0h0Zm0,0h0Zm0-.05Zm0,0Zm0,0h0Zm0,0h0Zm0,0h0Zm0,0h0Zm0-.05Zm0,0Zm0,0Zm0,0Zm0,0Zm0,0h0Zm0,0h0Zm0,0Zm0,0Zm0,0Zm0,0Zm0,0Zm0,0h0Zm0,0h0Zm0-.05Zm0,0Zm0,0Zm0,0Zm0,0Zm0,0h0Zm0,0h0Zm0-.05h0Zm0,0Zm0,0Zm0,0Zm0,0h0Zm0,0h0Zm0,0h0Zm0-.05Zm0,0Z" transform="translate(0 -1.91)"/>
      <path class="cls-1" d="M11.21,42.77a1.07,1.07,0,0,0,0,.25,3.06,3.06,0,0,0,.37.9A6.39,6.39,0,0,0,12.38,45v.11h.17l0-4.23h-.17v.76a2.93,2.93,0,0,0-.52.18,1.37,1.37,0,0,0-.52.46A1,1,0,0,0,11.21,42.77ZM12,44.13l0,0h0s0,0,0,0v0l.14,0h.16v.65a1.49,1.49,0,0,1-.38-.59Z" transform="translate(0 -1.91)"/>
      <path class="cls-1" d="M10.65,38.57a1.71,1.71,0,0,1,.59,1.33c.2.29.46.54.4,1l1-.06-.07-6.58-.77-.05a1,1,0,0,1-.23.17,1.12,1.12,0,0,1,.06.4l-.09.4-.11-.06.08.28v.1l-.08.29.13,0a.65.65,0,0,1,0,.48,1.66,1.66,0,0,1,.25.45l.25,0v.11h.14v.33h-.69c.08.9-.49,1.11-.87,1.49Z" transform="translate(0 -1.91)"/>
      <path class="cls-1" d="M9,24.89l0,0h0v0l0,0,0,0v0l0,0v0h.07a0,0,0,0,0,0,0,.1.1,0,0,0,.07,0,.06.06,0,0,0,.06-.06h.1a0,0,0,0,0,0,0,0,0,0,0,0,0,0l0,.06h0a.74.74,0,0,0,1,.58h0l0,0h0l0,0h0l0,0v0h.36l0,0h.35l.09,0h.08v.11h-.06v0h-.11l0,0h-.16l0,0h-.18l0,0h0l0,0h0l0,0a.23.23,0,0,0-.28.16h0l0,0h0l0,0s0,0,0,0h-.08s0,0,0,0,0,0,0,0h0s0,0,0,0h0a0,0,0,0,0,0,0h.05s0,0,0,0,0,0,0,0h0s0,0,0,0h0a.21.21,0,0,0,.28.15l0,0h0l0,0h0l0,0h.19v0h.17l0,0h.11v0h.14v0l.1,0h.49l0-2.89h-.49l-.1,0v0h-.14v0h-.11l0,0h-.16l0,0h-.19v0h0l0,0h0l0,0c-.19,0-.27.08-.28.16h0l0,0h0l0,0,0,0h0l0,0h0l0,0a0,0,0,0,0,0,0h.08s0,0,0,0l0,0h0l0,0h0a.21.21,0,0,0,.28.15l0,0h0v0h0l0,0h.18l0,0h.16l0,0h.11v0h.06V24h-.07l-.1,0H11.1l0,0h-.37v0h0v0h-.06l0,0h0a.76.76,0,0,0-1,.6h0l0,.06a0,0,0,0,0,0,0,0,0,0,0,0,0,0h-.1s0-.06-.07-.06a.06.06,0,0,0-.06,0s0,0,0,0H9.2v0l0,0v0H9.1v0l0,0,0,0,0,0Zm.08,0h0v0Zm0,0h0Zm0,0v0h0v0H9.11Zm0,0v0h0Zm0,.05h0v0Zm0-.06h0v0h0Zm0,0v0h0Z" transform="translate(0 -1.91)"/>
      <path class="cls-1" d="M11.39,19.25v.05h0l0,0h0l.4.37h0v0l0,.22h0a0,0,0,0,0,0,0h0s0,0,0,0h0v.23h0l.1.2h.51v-.14a.47.47,0,0,1-.38-.44.42.42,0,0,1,.3-.44v0h.07V19.1h-.46s0-.37,0-.44v-.44h.46V18h-.08v0a.46.46,0,0,1-.31-.44.49.49,0,0,1,.38-.45v-.14H12l-.1.21h0v.22h0a0,0,0,0,0,0,0h0v.22h0a4.67,4.67,0,0,1-.39.37h0l0,0h0v.1h0l0,0h0a2.16,2.16,0,0,1,.39.34v.21h0v-.05h0v.05h0v-.05h0v.05h0v0h0v0h0v0h0l0,0v0l0,0h0v0h0v0h0v0h0v0h0v0h0v0h0v0h0v.2a2,2,0,0,1-.37.35h0l0,0h0v.05Zm.08,0h0s0,0,0,0h0l0,0Zm0-1.22,0,0h0a0,0,0,0,0,0,0h0Zm0,1.16a2.31,2.31,0,0,0,.36-.34v0a1.64,1.64,0,0,1-.29.3Zm0-1.1h.08a2.13,2.13,0,0,1,.3.3v0A2.05,2.05,0,0,0,11.46,18.12Zm0,1.2h0a1.85,1.85,0,0,1,.37.32h0l-.35-.32Zm0-1.29c.12-.11.24-.23.34-.34h0a1.92,1.92,0,0,1-.36.34Zm0,1.25h0l.15.07-.06,0-.08,0h0Zm0-1.22h0l.08,0,.05,0a.61.61,0,0,1-.14.07Zm0,1.25h0l.08,0,.08,0h0l0,0,.07.06h0s0,0,0,0l0,0h0v0h0v.12a1.86,1.86,0,0,0-.36-.33Zm0-1.28a1.56,1.56,0,0,0,.35-.33v.11h0v0a.05.05,0,0,0,0,0h0l-.07.06s0,0,0,0h0l-.08,0-.08,0h0Zm.05,1.25h.12a.2.2,0,0,0,0,.08Zm0-1.22L11.7,18l0,.08Zm0,1.16a1.53,1.53,0,0,0,.28-.29v0l-.06,0a.31.31,0,0,0-.09.19s0,0,0,0v0Zm0-1.1h.11v0l0,0a.31.31,0,0,0,.1.19l.06,0v.05a2,2,0,0,0-.29-.29Zm.16,1.08a.27.27,0,0,1,.08-.18l.05,0v.22h-.12v0Zm0-1.06h0v0h.12v.22l-.06,0a.28.28,0,0,1-.09-.17Zm.05,1.14h.12v.1h0S11.75,19.34,11.74,19.28Zm0-1.22a.11.11,0,0,1,.12-.1h0v.1Zm.11,1.42,0,0h0Zm0-1.62s0,0,0,0h0Zm0,.86h0v.12l0,0v-.15Zm0-.1v-.15l0,0v.12Zm0,.25,0,0v0l0,0Zm0-.41v0l0,0v0l0,0Zm0,.47h0v0h0v0Zm0,0h0l0,0v0Zm0-.5h0v0l0,0Zm0,0v0h0v0Zm0,.58h0v.16h0Zm0-.64V18.2h0v.16Zm0,.8h0v.06h0v-.06Zm0-1v-.06h0v.06Zm0,1.09h0v.09h0v-.1Zm0-1.22V18h0v.09Zm0,1.45h0Zm0-1.68h0Zm0,1.7h0v0h0v0h0v.12h0v-.12Zm0-1.72v-.12h0v.12h0v0h0v0Zm0,.91h0v.07l0,0Zm0-.1v-.11l0,0v.08Zm0,.22,0,0v0l0,0v0Zm0-.34v0l0,0v0l0,0Zm0,.37,0,0v.09h0v-.05Zm0-.41v-.05h0v.09l0,0Zm0,.47h0v0h0v0Zm0-.52v0h0v0Zm0,.56h0v.17h0V19Zm0-.61V18.2h0v.17Zm0,.79h0v.06h0v-.06Zm0-1v-.06h0v.06Zm0,1.47h0l0,0v0l0,0Zm0-2v0l0,0h0l0,0Zm0,2,0,0,0,.19h0Zm0-2v-.22h0v.2Zm0,1.63h0a.13.13,0,0,1,0,.09Zm0-1.22V18s0,0,0,.09Zm0,1.6h0Zm0-2v0Zm0,2.23h0v.25h0Zm0-2.49v-.24h0v.24Zm0,2.12.05.08v0h0v-.11Zm0-1.74v-.11h0v0l0,.08Zm0,.92h0v0l0,.05v-.07Zm0-.1v-.07l0,.05v0Zm0,.18,0-.05h0l0,0Zm0-.26v0l0,.06h0l0-.05Zm0,.28,0-.05v.15h0Zm0-.31v-.1h0v.16Zm0,.44v0h0v0Zm0-.54v0h0v0Zm0,.56h0v.18h0V19Zm0-.6V18.2h0v.17Zm0,.78h0v.06h0v-.06Zm0-1v-.06h0v.06Zm0,1.47h0v.08l0-.06Zm0-2v0l0-.06v.09Zm0,2.49h0v0l0,0Zm0-3h0l0,0v.05Zm0,2.52,0,.06h0l-.05-.05v0Zm0-2.05h0l0-.06h0l0,.06Zm0,2.08.05.05v0h0v.08h0v-.18Zm0-2.1v-.19h0v.08s0,0,0,0v0h0a.21.21,0,0,1,0,.06Zm0,2.29h0v.25h0v-.25Zm0-2.49v-.24h0v.24Zm0,2.75h0v.15l0-.09h0v-.06Zm0-3V17.1h0L12,17v.16Zm0,1.58h0Zm0,0h0Zm0-.11v0Zm0,0h0v0Zm0,.17,0,0h0v.2h0Zm0-.18v-.17h0v.21h0l0,0ZM12,19v0h0Zm0-.54v0h0v0ZM12,19h0v.18h0Zm0-.59V18.2h0v.18Zm0,.78h0v.06h0Zm0-1v-.06h0v.06Zm0,1.64h0v.06h0v-.07Zm0-2.33v-.07h0v.07H12Zm0,1.21h0Zm0-.09h0v0Zm0,1.29h0a2.29,2.29,0,0,0,0,.25H12Zm0-2.49v-.24h0c0,.08,0,.16,0,.24Zm0,2.75h.05a1.36,1.36,0,0,0,0,.2h0l0,0v-.17Zm0-3V17h0c0,.07,0,.14,0,.21Z" transform="translate(0 -1.91)"/>
      <path class="cls-1" d="M10.76,9.11a.38.38,0,0,0,0,.19l0,0v0h.06a.12.12,0,0,0,.1,0h.18l.06,0h0l0,0h.05v0h0v0a.51.51,0,0,0,0-.25h.13v0a3.54,3.54,0,0,0,0,.46h.16v0h.11l0,0H12c0-.14,0-.28,0-.42h.4a.91.91,0,0,0,0-.17H12c0-.14,0-.28,0-.42h-.18v0h-.11l0,0h-.14a3.85,3.85,0,0,0,0,.48h-.13a.66.66,0,0,0,0-.25l0,0h0v0h-.06a.18.18,0,0,0-.09,0H11l-.1.05h0s0,0,0,0h0v0h0l0,0a.54.54,0,0,0,0,.19V9.1Zm0,0h0v0a.56.56,0,0,0,.07.18h0a.25.25,0,0,0,0,.07v0A.41.41,0,0,1,10.77,9.11Zm0-.16a.54.54,0,0,1,0-.19v0l0,.06h0a.6.6,0,0,0-.06.19V9Zm0,.08V9a.48.48,0,0,1,.06-.18l0,.09a.53.53,0,0,0,0,.12v.06h0v0l0,.09a.55.55,0,0,1-.06-.18Zm.05.32Zm0-.64Zm0,.65h0Zm0,0h0l0,0,0,0h0Zm0-.05s0,0,0-.07l0,0,0,.05Zm0-.6h0l0,0v0A.14.14,0,0,1,10.82,8.73Zm0,.61,0-.05h0l0,0Zm0-.63h0l0,0h0Zm0,.64,0,0,0,0h0l0,0h0Zm0-.1,0-.08s0,.05,0,.07l0,0h0l0,0Zm0-.44,0,0h0v.1l0-.08Zm0-.1s0,0,0,0h0s0,0,0,0h0l0,0Zm0,.57h0v0h0Zm0-.51h0v0h0v0Zm0,.62h0l0,0a0,0,0,0,1,0,0h0s0,0,0,0h0l-.08,0Zm0-.72L11,8.62l0,0a.11.11,0,0,0,0,.06l0,0Zm0,.63h0v0h0Zm0-.55,0,0h0v0Zm0,.42v0h0a.43.43,0,0,0,0,0l0,.05A.13.13,0,0,1,10.89,9.17Zm0-.27h0V8.83l0,0s0,0,0,.06v0Zm0,.23h0Zm0-.2V9A.13.13,0,0,1,10.89,8.93Zm0,.15v0Zm0,.16,0,0v0l0,0Zm0-.43v0l0,0v0Zm0,.47,0,0a.14.14,0,0,0,0,.06l0,0,0,0h0V9.28Zm0-.5V8.71h0l0,0,0,0,0,.06Zm0,.25V9L11,9l0,.05h0V9Zm0-.08a.64.64,0,0,1,0-.07A.21.21,0,0,0,11,9V9l0,0A.43.43,0,0,0,10.91,9Zm0,.18,0,0v0L11,9l0,0h0s0,0,0,0v0l0,.05Zm0,.23a.37.37,0,0,0,.12.07H11v0l0,0h0Zm0-.66,0,0s0,0,0,0H11A.28.28,0,0,0,10.91,8.7Zm0,.65,0,0,0,0v0a.29.29,0,0,0,.07.08h0a.35.35,0,0,1-.13-.08Zm0-.64L11,8.62h0s0,0,0,.06h0a0,0,0,0,0,0,0s0,0,0,0v0l0,0Zm0,.48,0-.06h0l0,0h0l-.07.09Zm0-.32v0l.06.1V9a.7.7,0,0,0-.06-.09Zm0,.35a.86.86,0,0,0,.07-.1.1.1,0,0,0,0,.05v0l-.08.1,0-.07Zm0-.39s0,0,0-.06a.73.73,0,0,1,.08.09v0l0,0-.07-.1ZM11,9l0,0h0l0,0s0,0,0,0a0,0,0,0,0,0,0l0,0h0Zm0,.26a.36.36,0,0,0,.08-.09v.21A.28.28,0,0,1,11,9.33l0,0Zm0-.53v0h0a0,0,0,0,0,0,0,0,0,0,0,1,0,0,.15.15,0,0,1,0-.06v.21Zm0,.68h0Zm0-.83Zm0,.48v0l0,0,0,0ZM11,9v0l0,0,0,0Zm0,.16,0,0h0v.08l0,0Zm0-.19,0,0V9h0Zm.05.49V9.19l.08.1s0,0,0,0l-.06.09Zm0-.25V9.08h0l0,0Zm0-.2V8.88l0,0,0,0Zm0-.11V8.63a.2.2,0,0,1,.06.09.05.05,0,0,1,0,0,.86.86,0,0,0-.07.1Zm0,.32,0-.06a.86.86,0,0,0,.07.1l0,.06-.08-.1Zm0-.31.08-.1a.14.14,0,0,1,0,.06l-.06.1a.21.21,0,0,1,0-.06Zm0,.56h0l.06-.08,0,0v0l0,0,0,0h0a0,0,0,0,0,0,0v0l0,0Zm0-.81h0a.42.42,0,0,1,.12.08l0,0,0,0,0,0-.06-.08Zm0,.81,0,0h0l0,0h-.07Zm0-.81h.07l0,0,0,0A.33.33,0,0,0,11.06,8.62Zm0,.46,0,0v0Zm0-.11,0,0V9l0,0Zm0,.47h0Zm0-.83h0Zm0,.45h0l0,0h0Zm0-.07,0,0h0l0,0h0Zm0,.13,0,0,.06.08v0l-.07-.09Zm0-.19.07-.09v0L11.12,9l0,0Zm0,.16v0l0,0h0l0,0a.64.64,0,0,1,0,.07Zm0-.13.06-.08s0,0,0,.06V9h0l0,0V9h0l0,0V9Zm0,.33a.14.14,0,0,0,0-.06l0,0v.07h0l0,0Zm0-.53v0l0,0h0v.06l0,.05A.14.14,0,0,1,11.15,8.76Zm0,.67,0,0a.42.42,0,0,0,0-.06l0,0h0l0,0h0Zm0-.81.07,0v0h0l0,0Zm0,.76,0,0a.14.14,0,0,1,0,.06h0v0Zm0-.33h0v0Zm0-.05h0l0,0V9Zm0,.22v0l0,.05v0Zm0-.39,0,0v0l0,0Zm0,.35s0,0,0-.06l0,0v.07l0,0Zm0-.31,0,0v.11A.14.14,0,0,0,11.18,8.87Zm0,.09h0Zm0,.39h0l0,0,0,0,0,0h0Zm0-.65,0,0h0l0,0,0,0Zm0,.4v0s0,0,0,.06l0,0Zm0-.16v0Zm0,.38h0v0Zm0-.59v0h0v0Zm0,.54v0h0Zm0-.49h0v0Zm0,.27h.11a.6.6,0,0,1-.06.19,1,1,0,0,1,0-.1S11.22,9.08,11.22,9.05Zm0-.05V8.9a.36.36,0,0,0,0-.09.56.56,0,0,1,.07.18h-.11Zm0,.24a.22.22,0,0,0,0-.08l0,.09v0h0Zm0-.43,0,0h0l0,0,0,.08Zm0,.49h0l0,.05h0Zm0-.55,0-.05h0l0,0Zm0,.53,0,0s0,0,0,.06h0Zm0-.51,0,0h0a.25.25,0,0,1,0,.07v0Zm0,.61s0,0,0,0h0s0,0,0,0h0Zm0-.7h0v0Zm0,.57a.62.62,0,0,0,.07-.19.41.41,0,0,1,0,.23v0a.14.14,0,0,0,0-.06Zm0-.45h0a.64.64,0,0,1,0-.07v0a.61.61,0,0,1,0,.24.84.84,0,0,0-.07-.19Zm0,.55Zm0-.65h0Zm0,.64Zm0-.63Z" transform="translate(0 -1.91)"/>
      <path class="cls-1" d="M10.18,21.84s0,0,0,0h0a0,0,0,0,1,0,0h0l0,0s0,0,0,0,0,0,0,0,0,0,0,0v0h.06s0,0,.07,0v0h0v0h0l.17.8H10.5s0,0,0,0h0a0,0,0,0,0,0,.06,0,0,0,0,0,0,0h0s.07,0,.08,0h0v.08h.07l.09-.08h.08v0h0v0h.69v0h0l0,0h.08l.11.24h0v0h0v0h0v0h0v.06h0v0h0l0,.09h-.05v0h0v.06h0v0h0v0h0v0h.05v.16h0v0h0v0h0v0h0v.06h0v0h0v.09h0v0h0s0,0,0,0h0v0h0v.07h0v0h0a0,0,0,0,0,0,0h0v0h.14v0h0v0h.36l0-3.87h-.36v0h-.18v0h0a0,0,0,0,0,0,0h0V20h0v0h0v.08h0v0h0v0h0v0h0v.06h0v0h0v.16h0v0h0v.06h0v0h0v0h0l0,.08h-.05v0h0v.06h0v0h0l-.1.24H11.6l0,0h0v0h-.69v0h0v0h-.08l-.1-.07v0h0l0,.09h-.12v0a0,0,0,0,0,.05.06s0,0,0,0,0,0,0,0h0l-.16.81h0v0h-.07s0,0,0,0a.05.05,0,0,0,0,0s0,0,0,0,0,0,0,0v0s0,0,0,0h-.05Z" transform="translate(0 -1.91)"/>
    </g>
    <g id="layer1">
      <g id="g7313">
        <g id="g7308">
          <g id="text853">
            <path id="path859" class="cls-2" d="M16.16,46.6c0-.05,0,0,.07.07l.12.2s0,0-.08-.08l-.11-.19Zm1-.61s0,0,.08.08l.12.19c0,.05,0,0-.09-.06L17.16,46Zm4.1-3.49.27.44a.63.63,0,0,1-.46-.32Zm8.24-4.9c.09,0,.13,0,.13,0V37.3c.16.05.26.2.32.45s0,.32-.22.23Zm.59-.19c.1.07.13.05.08,0,.09.06.15.06.18,0a.27.27,0,0,0,0-.22.57.57,0,0,1,.47.48c.08.3,0,.44-.32.42a1.23,1.23,0,0,1-.42-.65Zm.53-.66.2.07c.09,0,.16.06.19,0s0,.09.18.24c0,.21-.13.25-.28.12a.77.77,0,0,1-.29-.47ZM34.43,39s0,.06.15.16c0,0-.07,0-.11,0a.24.24,0,0,1,0-.12Zm.09-.06s.07,0,.11.05a.16.16,0,0,1,0,.13s0-.07-.14-.18ZM35,34.07a.31.31,0,0,1,.2.13.65.65,0,0,1,.17-.09.28.28,0,0,0,.15-.1s0,0,.08.13,0,0,0-.1,0-.09,0-.09c.09.17.19.21.28.12a.52.52,0,0,0,.29.31s.06-.1.07-.22.09.07.14.16.06.15,0,.18a.56.56,0,0,1,.16.45.4.4,0,0,1-.2.31.6.6,0,0,1-.39.1.5.5,0,0,1-.36-.22.06.06,0,0,1,0-.06s0,0,0,0a5.73,5.73,0,0,1-.67-1Zm3-1.06c0,.05,0,.07-.08.08h0s0,0-.07,0,0-.06.08-.1.1,0,.11,0Zm.58.39s0,.06-.07.07-.08,0-.1,0,0,0,.1-.08.06,0,.07,0Zm.84.93s.07,0,.1,0l.08.15-.11.07-.09-.14c0-.06,0-.09,0-.11Zm-.95-1.85a.37.37,0,0,0,.06-.21s.06.12.29.42a.1.1,0,0,1,.06-.09c.06,0,.1-.05.11-.09l-.24-.41a.47.47,0,0,1,.25,0,.37.37,0,0,0,.28-.11c0-.05,0-.1.05-.17s.08-.11.06-.16l.07.06.07.05c.06,0,.1,0,.13-.05a.56.56,0,0,0,.23.27l.25.13s0-.06,0-.14,0,0,.07,0a.44.44,0,0,0-.1-.32,1.62,1.62,0,0,1-.16-.35.2.2,0,0,1,.18.08.28.28,0,0,0,.17.1.23.23,0,0,0,0-.18.48.48,0,0,1,0-.19.24.24,0,0,1,.18.09.6.6,0,0,0,.15.14.24.24,0,0,0,0-.22l0-.18.31.2s.06-.1,0-.19a.57.57,0,0,1,0-.2s.06,0,.1,0,.08.07.11.06a1.3,1.3,0,0,1-.15,1,2,2,0,0,1-.76.74,2.07,2.07,0,0,1-1,.26,1.33,1.33,0,0,1-.94-.42.19.19,0,0,1,.12,0,.15.15,0,0,0,.11,0Zm3-.79h-.08l0-.06.15-.09a.05.05,0,0,1,0,.07.11.11,0,0,0,0,.07Zm-.33.29a.27.27,0,0,0,.13.1q0,.11-.06.09a.19.19,0,0,1-.14-.11l0-.07a.56.56,0,0,1,0-.08c0-.06.07,0,.12,0s0,.06-.05.06-.07,0-.08,0Zm.83,1.58c0-.06,0-.1,0-.14s0,0,.14-.08c0,.09,0,.16-.14.22Zm.44.68c-.07.07-.14.08-.18,0l.11-.07S42.34,34.18,42.35,34.24ZM41,32.14s.12,0,.2.09,0,.07-.11,0-.11-.07-.09-.13Zm.11.32s0,0,0,0l0,.05a.07.07,0,0,0,0-.08s0,0,0,0,.06.11.09.1,0,0,0,0,0,0,0,0-.05,0,0,.07-.05,0-.07-.07,0-.1-.07-.11Zm-.22-.16c.08-.07.13-.06.17,0s0,.06-.07,0a.17.17,0,0,1-.1-.07Zm1,1.52c-.08,0-.14,0-.17,0S41.8,33.74,41.83,33.82Zm-.06.21a.08.08,0,0,1,0-.1l.09-.08c0,.06,0,.12-.08.18Zm1.17,2.36-.06-.06s-.05,0-.08,0a.15.15,0,0,1,.09-.08.25.25,0,0,0,.13-.09l0,.18Zm.17.46c0-.08,0-.13,0-.15a.13.13,0,0,0,.1-.09c0,.12,0,.18,0,.16s0,.09-.11.08Zm.12.27s0,0,0,0a.46.46,0,0,1,0-.09c-.06,0-.06-.05,0,0s.14,0,.15,0,0,.05-.07.07l-.08.06Zm.19.19a.1.1,0,0,1-.1,0l-.07-.05s0-.07.08-.08.08,0,.08,0-.06.08,0,.21Zm0,.18s0,0,0-.05,0,0,.09,0,0,0,.07,0,0,0,0,.06a.22.22,0,0,1-.13,0Zm.15.26s.07,0,.09-.19c0,0,0,0,0,.1s-.06.11-.1.09Zm.15.24,0-.14s0,0,.08,0,.06,0,.08,0,0,.07,0,.07l-.11,0Zm-1.53-2.22a.16.16,0,0,1,0-.15.22.22,0,0,0,0-.13s0,0,0,0,0,.08-.06.08a.09.09,0,0,0-.09,0s0-.06.08-.09a.27.27,0,0,1,.12,0l.08.13a.17.17,0,0,1-.06.06s0,0,0,.05l-.1.1ZM42,35.61c.05,0,.09,0,.12,0s0,.09,0,.12Zm-.22,0h-.13s0,0,0,0l.06,0a.33.33,0,0,1,.16-.09c0,.06,0,.09,0,.1a.07.07,0,0,0-.06.06Zm.16.33s0-.08,0-.09,0,0,0,0-.06,0-.11-.11a.27.27,0,0,1,.14,0,.24.24,0,0,0,.13,0s0,0-.1.09Zm1.38,2.37a.05.05,0,0,1-.08,0s-.06,0-.07,0,0-.07,0-.12S43.28,38.16,43.33,38.27Zm.2.45a.09.09,0,0,1-.13,0c.12,0,.15,0,.08-.13s0,0,.1.12-.07,0,0,0Zm-.41-.8a.13.13,0,0,1,0,.08.05.05,0,0,0,0,0s0,0-.09,0A.17.17,0,0,0,43,38a.18.18,0,0,1,.17-.1Zm-.19-.06a.12.12,0,0,0-.11-.06s0,0,0,0l.15,0c0,.07,0,.12,0,.15a.28.28,0,0,1-.17,0s0,0,.05,0,.07,0,.09,0Zm0-.22a.15.15,0,0,1-.12,0,.1.1,0,0,0-.1,0s0,0,0,0l.08,0c.1,0,.15,0,.14.13Zm-.3-.31a.09.09,0,0,1,.1,0s.08,0,.1,0,0,0-.09.08a.48.48,0,0,0-.13.09Zm-.17-.15c0-.06.05-.09.08-.09s0,0,.08-.09c0,.2-.06.26-.24.19,0,0,0,0,0-.06a.12.12,0,0,1,0,0Zm-.12-.06c-.07-.19,0-.25.21-.17,0,0,0,0,0,0s0,0-.06,0a.11.11,0,0,1-.08.09s0,0-.05.07Zm0-.48c0,.1,0,.14.09.11s0,0,0,0,0,0,0-.05,0,0,0,.05,0,0,0,.06a2.26,2.26,0,0,0-.34,0,.11.11,0,0,1,.09-.09.26.26,0,0,0,.12-.06Zm-1.53-2c-.1.06-.17.05-.2,0l.1,0s.08,0,.1,0Zm-1.1-1.12c0-.24,0-.27.14-.08S39.72,33.53,39.63,33.53Zm1.11,1.59a.1.1,0,0,1,0,.13s-.08,0-.13,0ZM40,34.61s0-.08.1-.11.11,0,.13.06l-.23,0Zm-.1-.29s0,0,0,.07l-.06,0a.22.22,0,0,0-.07.06c-.05-.05,0-.09,0-.12s.1,0,.08,0Zm-.69-1.14s-.07,0-.12,0-.08-.05-.12,0,0-.06.1,0,.12,0,.15,0a.13.13,0,0,1,0,.06.08.08,0,0,0,0,.07Zm.1.11s-.08-.06-.08-.14,0-.11.1-.09S39.37,33.25,39.32,33.29Zm.34-.11s-.1,0-.14-.09v.18a.08.08,0,0,1-.1-.06s0,0,0-.13a.16.16,0,0,1,.12,0,.11.11,0,0,0,.12,0s0,.06,0,.08a.11.11,0,0,0,0,.08Zm.17.23s0,0,0,0a.18.18,0,0,0-.07-.13h0a.3.3,0,0,1,.18.09s0,.05,0,.05a0,0,0,0,0,0,0Zm.44.35.13.22s0,0-.11.07l-.13-.22Zm-.2-.53c0,.13,0,.17,0,.12s-.06,0-.07-.07v-.1s.11,0,.18.1a.21.21,0,0,1-.07-.05Zm.48.66s-.08,0-.13-.07-.06-.14,0-.14Zm2.51,2.82c0,.1-.06.11-.07,0v0h0a.88.88,0,0,1,0-.23c.09,0,.12,0,.1.1a.19.19,0,0,1-.1.13h.07ZM41,32.78s0,0-.06,0,0,0,0,0a0,0,0,0,1-.07,0,.14.14,0,0,1,0-.2s0,0,0,.08l.08.05a.18.18,0,0,1,.08.07Zm.42.31a.14.14,0,0,0,0,.13s0,0-.09-.06,0,0,0,.07,0,.07.07.05,0,.1-.11.15l-.13-.22Zm-.53-.55.11,0a.11.11,0,0,1,.1.06s0,0,0,.07,0,0,0,.06-.05,0-.08-.09a.23.23,0,0,0-.08-.12Zm.27.7c.07.13.11.21.1.24l-.18.1c-.07-.11-.12-.17-.14-.17s.08,0,.22-.17ZM40.68,33s0,0,0-.07v-.1s.1,0,.17.1,0,0-.07-.05c0,.13,0,.17,0,.12Zm.82.51c.1.34.3.92.62,1.74l-.52.31c-.72-.81-1.14-1.26-1.25-1.36Zm-1.24-.3s0,0-.1,0A.3.3,0,0,1,40,33l.18,0a.35.35,0,0,1,0,.07S40.24,33.17,40.26,33.16Zm.31.72s0-.05-.09-.15,0-.09,0-.11.06,0,.1,0l.08.15Zm-.13-.83q0,.09-.15.09c0-.14,0-.21,0-.22S40.39,33,40.44,33.05Zm.41.37a.67.67,0,0,0,.1.23l-.17.11c-.11-.11-.16-.17-.14-.18s.08,0,.21-.16Zm-.41-.49s0,0,0-.07,0,0,0-.08a.14.14,0,0,1,.08.12.18.18,0,0,1-.06.17s0,0,0,0,0,0,0,0,0,0-.05-.09Zm-.81,1.38.13,0c0,.06,0,.1-.07.13Zm-.76-1.13s0,0-.07,0h-.09s0-.06.06-.09.09,0,.1,0Zm2.94-1.85a.1.1,0,0,1,0,.12.14.14,0,0,1-.13,0S41.72,31.43,41.81,31.33ZM41.75,31c0,.05,0,.08-.07.1s-.07.06,0,.1-.1,0-.06-.08a.25.25,0,0,1,.17-.12Zm0-.41q0,.23-.18.15S41.67,30.74,41.78,30.61Zm1.43-.34s0,.12,0,.23l.07,0a.08.08,0,0,1,.08,0s0,0,0,.06a.08.08,0,0,0,0,.07.14.14,0,0,1-.17-.12c0-.07,0-.1-.07-.09a.14.14,0,0,1,0-.11.06.06,0,0,1,.09,0Zm.25.41a.06.06,0,0,1,0,.06s0,.05,0,.06-.09,0-.1-.06,0-.09.1-.06Zm1.92-1.63.35-.25s0,.05,0,.1a.17.17,0,0,0,.06.1L45.9,29a.11.11,0,0,0,0-.13.18.18,0,0,1-.1-.14c.08,0,.09-.06.06-.11s.06,0,.07.13a.13.13,0,0,0,.11-.13.41.41,0,0,0,0-.08l0-.09a.32.32,0,0,1,.14,0h.13a.33.33,0,0,1,0-.14.51.51,0,0,0,.05-.17c-.05,0,0,.13.29.43-.06,0-.08,0-.05.1a1.31,1.31,0,0,0,.13.16.1.1,0,0,0,0-.1s0-.06,0-.08a1,1,0,0,1,.23.29c.08.15.1.23,0,.24a.74.74,0,0,1,.28.3c.11.17.14.27.08.3a.16.16,0,0,0,.11.07s.07.06.11.15l-.59.35-.65.39c-.57-1.08-.85-1.61-.84-1.61Zm.23-1.22.44-.26.17.28a1.77,1.77,0,0,0-.47.2Zm1.76,1.88a2.05,2.05,0,0,0,.45-.22l.09.15-.42.26ZM47,29.1l.21-.1.24-.11a2,2,0,0,1,.27.51c-.07,0-.21.12-.4.25Zm-.36-.6a.87.87,0,0,0,.44-.22l.31.51-.41.28-.34-.57Zm-.3-.5.35-.31s.09.06.17.21l.14.25a1.35,1.35,0,0,1-.38.32Zm-.28-.45c0-.05.08-.06.15-.05s.06,0,0-.05c.16.06.27.05.34,0a.66.66,0,0,1,.11.24.93.93,0,0,0-.45.17Zm-31.6,18.2c.08.11.19.31.35.58s.24.41.3.5a3.56,3.56,0,0,1,.78-.39,1.7,1.7,0,0,1,.31.39l.23.38c.11,0,.17,0,.16-.06a.84.84,0,0,0,.75.54l.11.13.09.14c.09.1.16.14.24.12a2.56,2.56,0,0,0-.22-.56c.18-.22.13-.52-.13-.92l.14-.08a.72.72,0,0,0-.12-.23,2.21,2.21,0,0,1-.17-.29c-.13-.25-.1-.42.07-.52.6,1.08.92,1.67.94,1.77.13-.06.23,0,.32.16a.76.76,0,0,1,.08.2l.06.14s0-.08,0-.07h.1a.25.25,0,0,1-.09-.19c0-.05-.05-.07-.1,0a.85.85,0,0,1-.05-.54s-.36-.52-1.05-1.56c.21-.06.3-.11.27-.12a2.39,2.39,0,0,1,.19.31l.37-.22a5.2,5.2,0,0,0,.36.52,2,2,0,0,1,.28.53.21.21,0,0,0,.12-.08l.12-.11a2.32,2.32,0,0,0,.81.68.74.74,0,0,0,.32.37s-.05-.11-.16-.36-.08-.24,0-.3a1,1,0,0,1,.23.3.16.16,0,0,1,.15.09l.12.17a.84.84,0,0,0,.33.19,2.06,2.06,0,0,1,.34.15,1.65,1.65,0,0,1,.27.37c.11.18.2.26.29.24-.21-.44-.32-.68-.36-.74a2.89,2.89,0,0,0-.2-1.43c.07,0,.15.05.25.2s.19.23.25.24c-.17-.32-.24-.46-.22-.43a.78.78,0,0,0,0-.53c-.09-.32-.14-.51-.15-.58a.11.11,0,0,0,.12,0,.14.14,0,0,1,.14,0,5.68,5.68,0,0,1-.59-1.12l.31-.19c0-.07,0-.11,0-.13-.17-.09-.24-.17-.21-.26a.6.6,0,0,1,.56.26s.11,0,.28,0a1.08,1.08,0,0,1,.38.11,3.59,3.59,0,0,1,.63-.42l.62-.37s.11.14.23.31a1.82,1.82,0,0,0,.24.27,5.36,5.36,0,0,0-.24-.59c.08.14.11.19.1.14s0-.14,0-.14.07,0,.11.06a.31.31,0,0,1,.05.09l.06.1.44.59c.2.26.33.43.38.51l.12.2c.05.06,0,0,0-.15,0,0-.15-.32-.47-1a1.86,1.86,0,0,0-.14-.23,2.08,2.08,0,0,1-.13-.21c0-.15,0-.2,0-.15l.11.11s0-.07-.1-.16,0-.08,0-.05a1.66,1.66,0,0,0,.36.47c-.16-.4-.24-.59-.23-.59s-.18,0-.17,0a3.28,3.28,0,0,1,.61-.42q.6-.33.78-.45a1.17,1.17,0,0,0,.14.27.86.86,0,0,1,.12.3c.09,0,.2.14.32.36a1.66,1.66,0,0,0,.38.48c.16-.11.28-.14.35-.08s-.06-.12,0-.14a.14.14,0,0,1,.09.05s.07.06.1,0a4.83,4.83,0,0,0-.55-1.29,10.49,10.49,0,0,1-.76-1.47.07.07,0,0,0,.05.06s0,0,0,.05.05-.08,0-.19,0-.13.06-.12a1.15,1.15,0,0,0,.27.45s0-.05.06-.07.08,0,.09-.06l.09.14c0,.07.06.08.1,0s0-.08,0-.14,0-.08,0-.08a.23.23,0,0,0,.12-.12L27,40q0,.09.09,0s0-.09,0-.16,0-.1,0-.12a15.35,15.35,0,0,1,1.33,2.27c.06,0,.14,0,.23.11s.18.21.24.21a1.45,1.45,0,0,1-.19-.63,5.42,5.42,0,0,1-.66-1c-.35-.6-.57-1-.64-1.07.26-.08.38-.14.34-.15a11.27,11.27,0,0,0,.65.95.43.43,0,0,1,.41.08l.18.13.18.15c-.07-.36-.11-.52-.11-.46A.48.48,0,0,1,29.2,40,8.41,8.41,0,0,0,28.64,39a.81.81,0,0,0,.35-.33s.08,0,.15.11.12.07.17,0a7,7,0,0,0,.65.95,4,4,0,0,0-.34-.7,2.09,2.09,0,0,1-.27-.57s.09-.06.1-.1.08.08.16.2.15,0,.11-.07a2.22,2.22,0,0,0,.23.39,3.9,3.9,0,0,1,.26.37,1.25,1.25,0,0,0,.35-.18q.23-.15.33-.12a.58.58,0,0,0,.2.27l.06-.1.07-.09c0,.06.05.09.05.07V39a.27.27,0,0,1,.05.16s0,0,0,0,.1,0,.12-.07a.42.42,0,0,0-.05-.2.27.27,0,0,0,.26,0c-.12-.2-.15-.32-.1-.37.32-.22.49-.35.5-.4a.83.83,0,0,1-.23-.58s.07,0,.1,0,.07.1.1.09,0-.06-.05-.1-.06-.07,0-.11a.23.23,0,0,1,.35,0q-.09-.15.09-.27c0-.09.06-.07.26.06l.69,1,.06.13.08.13c.06.1.08.09.07,0a.7.7,0,0,0,.69.36,1.28,1.28,0,0,0,.37.55c0-.07,0-.11,0-.13a.88.88,0,0,1,.17.23.63.63,0,0,0,.18.22.66.66,0,0,0-.13-.27c-.07-.13-.09-.22-.07-.27a.28.28,0,0,0,.11.07,1.53,1.53,0,0,1-.19-.3,1.07,1.07,0,0,0-.17-.3,1,1,0,0,0,0-1q-.08-.15-.3-.54c-.15-.26-.26-.47-.34-.63q.16,0,.12-.24s.06,0,.24.07q-.09-.24.06-.27a.28.28,0,0,1,.22.07A.77.77,0,0,0,34.4,36a.12.12,0,0,1,.1-.07.26.26,0,0,0,.14-.07,3,3,0,0,1-.25-.33c-.09-.15-.09-.26,0-.31.07.11.21.35.42.73s.31.51.4.63a.31.31,0,0,0-.06.3.18.18,0,0,1,.28,0,.21.21,0,0,1,.07.15.28.28,0,0,0,0,.14c.26,0,.42-.07.49-.24a18.24,18.24,0,0,0,1.75-1,1.27,1.27,0,0,0,.52-.45.31.31,0,0,1-.2-.24.28.28,0,0,1,0-.27s0,0-.22,0c-.13-.24-.41-.7-.84-1.4l.18-.15a7.46,7.46,0,0,0,.58.65c-.07-.14-.14-.32-.22-.53s-.17-.44-.2-.5a10.23,10.23,0,0,0,1,.67,2.49,2.49,0,0,1,.93,1l.26-.16c.54.47,1.13,1.05,1.78,1.74-.08.19,0,.33.13.4s.06,0,0-.06,0-.08,0-.08a57.32,57.32,0,0,1,4.22,6s-.07-.08-.09-.08a.44.44,0,0,0,.17.39,1.15,1.15,0,0,1,.24.28c.19,0,.39.15.58.47a2.35,2.35,0,0,0,.42.61,1.64,1.64,0,0,0-.18-.34,4.48,4.48,0,0,1-.25-.43,2.06,2.06,0,0,1-.08-.27c0-.11-.06-.16-.1-.15l.09-.26a.17.17,0,0,1-.06-.09.18.18,0,0,0-.11-.12c.07,0,.08-.06,0-.13s-.07-.14-.06-.15a.54.54,0,0,1-.19-.14.87.87,0,0,0-.16-.13Q43.19,36.31,43,35.75c.08,0,.1-.06.08-.1s0-.1,0-.12a.33.33,0,0,0-.16-.11l-.15-.09c-.42-1.5-.63-2.29-.63-2.36l.22-.13c0-.05,0-.06,0,0s0,.08-.07.07a.27.27,0,0,0-.13-.13.11.11,0,0,1,0-.11.07.07,0,0,0,0-.11,1.87,1.87,0,0,1-.24-.88v-.45a3.72,3.72,0,0,0,0-.44.4.4,0,0,0,.26.16c.05,0,.06-.06,0-.13s0-.11,0-.13a.49.49,0,0,1,.16.21c.07.13.12.2.16.21s0,0,0-.05a.13.13,0,0,1,.07-.11c.1.09.17.11.21.05s.13-.11.18-.1,0-.19-.12-.39-.16-.32-.11-.39q.1.12.36.48c.13.2.22.3.27.31s.07-.16.08-.13a.6.6,0,0,0,.12.22.4.4,0,0,1,.1.21c0-.05-.07-.06-.1,0,.14.2.21.29.2.26a.27.27,0,0,1-.18-.16.25.25,0,0,1,0-.21s0-.05,0-.08-.08,0-.1,0,0,0-.07,0a.94.94,0,0,1,.2.35c.09.18.17.28.23.29s0,0,.06-.21a2.86,2.86,0,0,1-.19-.37.84.84,0,0,0-.33-.39c0-.05,0-.1-.05-.14s-.09-.1,0-.15.07.09.06.1a1.26,1.26,0,0,0-.16-.37,1.63,1.63,0,0,1-.17-.38l.11-.07,1.35,2.25c.08-.07.17,0,.28.14l-.06-.09a.15.15,0,0,1,.05-.22c.19-.11.28-.17.28-.15l-.46-.77a.39.39,0,0,1,.11-.09.48.48,0,0,0,.08-.11,1.31,1.31,0,0,0-.19-.54.82.82,0,0,1-.13-.52L46,32l3.27-2-1.66-2.75s.06-.12,0-.23a.31.31,0,0,1,0-.23A5.42,5.42,0,0,1,48.32,28a14.16,14.16,0,0,0,.77,1.22A1.72,1.72,0,0,1,49,29a1.38,1.38,0,0,0-.14-.24.72.72,0,0,0,.18-.2,1.11,1.11,0,0,1,.16-.21,3.39,3.39,0,0,0-.4-.8,6.62,6.62,0,0,1-.45-.81.07.07,0,0,0,.09,0s0,0,0-.08l.27.29a3.22,3.22,0,0,0,.25.29c.18.2.32.24.41.12s.12-.17.12-.13a1.8,1.8,0,0,0-.4-.91c-.42-.65-.63-1-.64-1l.17-.1-.47-.79L31,34.73Q20.39,41.06,13.79,45.08l.46.76c.17,0,.24-.07.22-.09Zm20-9.63s0,0,0,0Zm12-7.74-.08-.13c0-.05-.06-.06-.1,0a.38.38,0,0,1,.08.11.11.11,0,0,0,.1,0Z" transform="translate(0 -1.91)"/>
          </g>
        </g>
      </g>
    </g>
    <path class="cls-2" d="M26.12,3.9l.05,0-.32.57a2.14,2.14,0,0,0-.1.22,1.24,1.24,0,0,0-.17.27,1.12,1.12,0,0,1,.2.17.61.61,0,0,1-.05.12l.08.11c-.15.3-1.83,3.17-1.89,3.5a1.46,1.46,0,0,1-.22.43l.07,0a2.27,2.27,0,0,0,.4-.62l.15.07.06-.09.14.08a.16.16,0,0,0,.05.17c-.08.14-.16.28-.23.43l0,0L25,8.28a6,6,0,0,1,.55.31c-.17.33-.2.3-.13.44,1.16-2,.81-1.62,1.11-1.67.1-.15.16-.31.26-.45L27,6.78v.14l.3.17,0,.09.05,0,.06-.08.08,0c-.1.2-.62,1.09-.82,1.48l.14.07c-.17.31-.36.61-.52.93l.17.09-.09.17.14.08c0-.22,0,0,.49-1,.24-.38.42-.8.67-1.18l.77.42c-.11.25-.27.48-.4.72a.65.65,0,0,0,.23.09c.27.24.22.15,0,.5a3.47,3.47,0,0,1,.37.21.3.3,0,0,0,0,.08c.1.19,0,.12.19.23-.39.69-.42.7-.37.74.21-.33.38-.68.58-1,.13,0,.28,0,.4.1a2.57,2.57,0,0,0,.41.26c-.15.29-.32.57-.47.86a12.8,12.8,0,0,0,.94-1.58,4.11,4.11,0,0,0,.47.11l.1-.08s0,.07,0,.11c.22.1.42.23.63.35-.25.48-.53.94-.78,1.41l.16.1,0,.1.38.22c.07-.12.13-.24.2-.35a2,2,0,0,0,.25.14,1.13,1.13,0,0,1,.16-.26c.08-.08.14-.19.22-.27s0,0,.38-.26c.08-.06.11-.16.18-.23l.11-.13a.17.17,0,0,1,0,.14,1.4,1.4,0,0,0-.14.72c0,.24,0,.18-.66,1.31l.11.06.57-1c0-.07.1-.11.14-.18a.64.64,0,0,1,.13-.19A1.45,1.45,0,0,0,33,11s.07,0,.11-.06.12-.14.2-.17.16-.16.24-.24a1.38,1.38,0,0,0,.22-.35h0c-.34.59-.2.46-.4.57l.15.11-.06.21c0,.06,0,.12,0,.18a.62.62,0,0,0-.07.19,1.8,1.8,0,0,1,.48.24,1.79,1.79,0,0,0,.15.56l-.66,1.2a.76.76,0,0,1,.19.12c.08.1.2.13.29.2l.14-.06a.24.24,0,0,0,.11.15c.65-1.15.69-1.38,1-1.27a.75.75,0,0,1,.07-.12h.12c0,.06-.05.11-.06.18v.11s0,.11,0,.15.06-.05.1,0c.28.13.09.08.38.3l-.15.26.2.13c-.13.25-.27.49-.41.74l.08.1c0,.12-.12.23-.18.35l.06,0c.29-.32.25-.26.66,0,0,0,.05,0,.05.06a1.46,1.46,0,0,1-.12.54c0,.06,0,.13,0,.18-.21.37-.42.73-.61,1.11l.17.09c.09-.15.17-.32.27-.47l.2.1a.86.86,0,0,0,.1-.16l.23.13c-.46.84-.5.84-.44.88.16-.25,1.1-2,1.11-2s.16,0,.24.06a.6.6,0,0,1,.39.23.66.66,0,0,1,0,.15c.18.08.34.2.52.29a6.07,6.07,0,0,1-.31.59l.34.18.12-.15c0,.1-.05.2,0,.3s.1,0-.49,1c.09.07.21.06.31.12.16-.27.68-1.26.93-1.67l.29.17.17-.07a.42.42,0,0,0,.18.17l0,.08a1.64,1.64,0,0,1,.22.14c0,.1-.1.19-.15.29.12.06.18.2.3.27a.21.21,0,0,0,0,.13,2.64,2.64,0,0,1-.2.37,3.88,3.88,0,0,1,.45.24c.14-.23.72-1.31,1-1.85l.3.17c.06-.1.13-.2.18-.3l.33.18c.12-.12.06-.12.25,0a6.75,6.75,0,0,1,.48-.82,6.12,6.12,0,0,1-.43.84.34.34,0,0,1,.11.17c0,.06.08.1.09.16s-.9,1.62-1.8,3.24l.21.12c.09-.17.73-1.34.84-1.51l.18.09a.94.94,0,0,1,.2-.29l.29.17a1.64,1.64,0,0,1-.16.29c.08.16.13,0-.23.65a3.14,3.14,0,0,1,.31.18,3.35,3.35,0,0,1-.2.37l.15.13a1.41,1.41,0,0,0-.13.24l.21.12c.06-.11.68-1.26.76-1.36.11.07.23.12.33.19a.91.91,0,0,0,.23.21.31.31,0,0,1,0,.1l.16.08.09-.16a1.19,1.19,0,0,1,.22.12l0,.08.2.12.07-.11.22.13s-.62,1.15-1,1.72l.08,0c.13-.22,1.35-2.43,1.39-2.5l.24.13c.1-.17.68-1.23.77-1.36a2.3,2.3,0,0,1,.4.23l.11-.18c0-.05.08-.06.1-.1l.31-.59c0-.05.06-.12.12-.14.3-.08.13,0,.63-.84l.08,0c-.15.28-.32.55-.46.83-.06.08,0,.18,0,.26s-.24.44-.37.65c0,.05,0,.12,0,.17l-.16.29.09,0,.11-.19c.06,0,.13,0,.19,0a.51.51,0,0,1,.38.14c.14.16,0,0-1.77,3.35l.54.31c-.12.23-.26.45-.38.68l0,0,.19-.35.05,0c-.07.12-.14.24-.2.37.25.16.12.07.34.13.23-.36,1-1.91,1.12-1.91l.23.12,0-.05a.25.25,0,0,0,.19,0,.36.36,0,0,0,0,.1c.34.16.31.2.48.23l.1.1v.08s.08,0,.11,0l0,0a.64.64,0,0,1,0,.07l.09.07-.74,1.33.07,0c.06-.09.08-.22.19-.25s.19,0,.25-.08a.67.67,0,0,0,.14-.28l.09,0c0-.05.06-.12.11-.16a.45.45,0,0,1,.2,0c.1-.09.11-.23.2-.33s0-.16,0-.24a.22.22,0,0,1,.15-.08c.12.06.07.07-1.46,2.81L13.26,5,15,1.91A.24.24,0,0,0,15,2a.34.34,0,0,0,.1,0s0,.07,0,.11.12,0,.18,0a1.34,1.34,0,0,0,.13.27c0,.06,0,.11-.07.17a.1.1,0,0,0,.09,0,.87.87,0,0,0,.32-.28l0,0a1.16,1.16,0,0,0-.06.42c0,.63,0,.35-.08.59l.06,0c-.06.13-.47.86-.54,1l.08.06s0,.06,0,.08l.19.11.09-.16a.93.93,0,0,0,.13-.15c.07-.1.11-.23.21-.3A.23.23,0,0,1,16,4c.16-.36.42-.42.47-.38a.43.43,0,0,1,.13.29,2,2,0,0,0,.05.24c0,.07-.07.14-.09.21s.17,0,.24.07.36.21.54.29c.09-.12.13-.28.26-.36l.1,0c.17-.28.07,0,.29-.42h.09c.05-.11.17-.16.2-.28l0,0c-.09.08-.08.21-.14.31l0,.09a1,1,0,0,0-.12.26c0,.06,0,.11-.05.17a1.09,1.09,0,0,1,0,.18,1.48,1.48,0,0,1-.15.31c0,.11,0,.07.39.28l.79-1.4.1.05.06-.09.18.05,0,0s.09,0,.12,0,.15,0,.27.05a1.23,1.23,0,0,0,.35.16c.08,0,.05.13,0,.18l.16.1a.37.37,0,0,1-.08.22l.11.06.05-.06c.08.06.18.09.26.16a.3.3,0,0,0,.12.15c-.25.43-1.23,2.18-1.33,2.39l.08.06v.06a.63.63,0,0,0,.22.18c.34-.61.69-1.22,1-1.83l.22,0a1,1,0,0,0,.13.22s-.52.93-.53.94L21,7a1,1,0,0,0-.09.18s0,.08,0,.12-.08.14-.11.21l.33.19.55-1,.2.11c.05-.09.09-.19.15-.28l.08,0a10.14,10.14,0,0,1,.83-1.39.59.59,0,0,1,.41.23,2.64,2.64,0,0,1-.15.29s0,.11,0,.16L23,6.11c0,.08-.05.17-.09.24s-.18.33-.27.49l.08,0a1.71,1.71,0,0,0,.13-.23l.14.07a.44.44,0,0,1,.08-.11c.17-.12-.08.26.94-1.56l.18,0,.1.07c.11,0,.2.12.31.17l0,.11.09,0,.16.08a5.7,5.7,0,0,1,.3-.54l.12,0,.07-.09.25.07c.21-.34.38-.7.59-1Z" transform="translate(0 -1.91)"/>
    <path class="cls-2" d="M14,44.65l1,.5a.35.35,0,0,1,0,.6l-.92.58-.91.58a.35.35,0,0,1-.53-.28l-.05-1.08,0-1.09a.35.35,0,0,1,.5-.32Z" transform="translate(0 -1.91)"/>
    <path class="cls-2" d="M13.32,3.3l1,.5a.35.35,0,0,1,0,.6L13.39,5l-.92.58a.35.35,0,0,1-.53-.28l0-1.08,0-1.09a.33.33,0,0,1,.5-.31Z" transform="translate(0 -1.91)"/>
    <path class="cls-2" d="M49,23.4l1,.51a.34.34,0,0,1,0,.59l-.92.58-.91.58a.34.34,0,0,1-.53-.27l0-1.09-.05-1.08a.35.35,0,0,1,.51-.32Z" transform="translate(0 -1.91)"/>
  </g>
  <text class="cls-3" transform="translate(20.3 19.94) rotate(-30.77)">3 <tspan class="cls-4"><tspan x="-4.39" y="5.32">D</tspan><tspan class="cls-5" x="-0.2" y="5.32">A</tspan><tspan class="cls-6" x="3.76" y="5.32">Y </tspan></tspan><tspan class="cls-7" x="-7.79" y="10.65">V</tspan><tspan class="cls-8" x="-3.67" y="10.65">A</tspan><tspan x="0.66" y="10.65">C</tspan><tspan class="cls-5" x="5.1" y="10.65">A</tspan><tspan x="9.05" y="10.65">Y</tspan></text>
</svg>
